<?xml version="1.0" standalone="no"?>
<!DOCTYPE svg PUBLIC "-//W3C//DTD SVG 20010904//EN"
 "http://www.w3.org/TR/2001/REC-SVG-20010904/DTD/svg10.dtd">
<svg version="1.0" xmlns="http://www.w3.org/2000/svg"
 width="690.000000pt" height="690.000000pt" viewBox="0 0 690.000000 690.000000"
 preserveAspectRatio="xMidYMid meet">
<metadata>
Created by potrace 1.11, written by Peter Selinger 2001-2013
</metadata>
<g transform="translate(0.000000,690.000000) scale(0.100000,-0.100000)"
fill="#000000" stroke="none">
<path d="M1955 5007 c-170 -46 -203 -56 -247 -71 -105 -37 -304 -142 -346
-183 -7 -7 -18 -13 -24 -13 -5 0 -71 -62 -146 -138 -121 -122 -149 -157 -235
-295 -129 -205 -190 -325 -212 -417 -9 -41 -25 -88 -34 -105 -25 -48 -92 -107
-156 -141 -73 -38 -99 -76 -98 -145 1 -26 4 -52 7 -57 3 -6 30 -24 60 -41 30
-16 77 -53 105 -82 49 -50 61 -75 76 -159 4 -19 8 -39 9 -45 2 -5 6 -28 10
-50 17 -89 60 -203 124 -325 37 -71 77 -140 87 -152 11 -13 47 -57 79 -98 65
-82 214 -234 288 -294 87 -70 370 -226 409 -226 9 0 69 -18 135 -39 65 -22
135 -42 154 -45 19 -3 46 -8 60 -11 138 -28 312 -22 470 16 47 12 96 23 109
26 14 2 29 7 35 11 6 3 20 8 30 9 10 2 40 13 65 24 25 12 51 22 56 23 12 3 45
17 118 48 82 35 319 159 343 179 8 6 14 9 14 5 0 -3 17 4 38 17 20 13 109 60
197 104 88 44 183 92 210 106 54 27 209 82 259 91 16 3 53 10 81 16 31 6 144
9 288 7 201 -3 245 -1 286 13 56 19 215 111 280 163 40 32 47 34 64 22 14 -10
26 -11 38 -5 9 5 68 10 130 11 63 0 132 1 154 2 22 1 67 -2 100 -7 65 -9 155
-9 163 -1 3 3 11 0 18 -6 7 -5 34 -10 61 -9 26 0 75 1 108 1 65 0 107 10 170
39 22 10 61 25 88 35 26 9 67 36 91 59 39 37 45 49 51 99 4 34 12 56 19 55 12
-3 106 56 145 91 13 11 28 22 33 22 4 1 13 3 18 4 6 1 14 3 19 4 25 3 36 71
36 221 0 211 -11 274 -48 286 -11 4 -42 22 -69 40 -26 19 -51 34 -56 34 -21 0
-61 58 -63 90 -4 92 -42 144 -113 156 -38 6 -75 36 -76 61 0 15 -40 43 -61 43
-9 0 -28 -11 -43 -25 -36 -33 -49 -32 -80 9 -23 31 -29 34 -55 26 -16 -4 -43
-18 -60 -31 l-32 -23 -23 27 c-31 35 -74 44 -102 20 -49 -44 -59 -45 -98 -7
-42 41 -73 43 -115 8 -26 -22 -34 -24 -47 -13 -10 8 -47 13 -104 13 -78 1 -91
4 -113 24 -20 19 -32 23 -57 17 -25 -5 -47 2 -119 39 -49 24 -120 64 -157 87
l-69 43 -155 2 c-292 4 -485 14 -530 28 -92 28 -250 96 -304 131 -30 19 -58
35 -62 35 -3 0 -48 25 -99 55 -52 30 -97 55 -100 55 -4 0 -25 13 -48 28 -23
16 -76 48 -117 71 -41 23 -82 46 -90 50 -13 8 -113 56 -305 147 -33 16 -62 29
-65 29 -3 1 -34 10 -70 22 -78 24 -191 52 -240 58 -19 3 -46 8 -60 11 -14 4
-113 8 -220 9 -165 1 -206 -1 -265 -18z m101 -602 c40 -9 120 -75 171 -140 55
-69 123 -176 123 -192 0 -7 4 -13 9 -13 5 0 13 -10 17 -22 3 -13 15 -35 26
-50 11 -16 17 -28 14 -28 -3 0 5 -24 17 -52 13 -29 23 -57 23 -63 0 -21 17
-65 24 -65 4 0 30 16 56 35 27 19 66 42 87 51 20 9 37 20 37 25 0 5 6 9 13 9
21 0 58 40 50 53 -9 15 -10 22 -22 117 -5 43 -5 79 0 85 5 5 9 20 9 32 0 56
95 154 163 169 4 1 9 2 12 3 3 0 8 1 13 1 4 1 16 7 27 14 13 8 58 13 128 14
92 1 113 -2 145 -20 20 -11 40 -25 44 -31 12 -19 2 -66 -18 -89 -11 -12 -23
-28 -29 -35 -19 -26 -63 -69 -115 -113 -29 -25 -60 -52 -69 -60 -15 -14 -49
-38 -92 -65 -60 -38 -88 -62 -85 -75 5 -32 169 -364 187 -380 3 -3 8 -12 12
-20 4 -8 20 -37 37 -65 17 -27 33 -57 36 -67 8 -23 36 -28 75 -11 19 8 59 20
89 28 55 14 136 35 285 75 44 12 89 23 100 25 19 3 34 6 93 19 13 3 33 8 45
12 12 4 33 8 47 9 14 2 48 8 75 15 28 6 66 14 85 16 19 3 44 8 55 11 11 4 34
8 50 9 77 7 264 24 285 27 8 2 20 5 25 9 6 3 31 8 56 12 40 6 51 4 73 -16 25
-21 26 -26 15 -58 -23 -70 -103 -106 -142 -62 -17 18 -25 18 -217 8 -52 -3
-115 -10 -140 -15 -25 -6 -67 -13 -95 -17 -27 -4 -52 -8 -55 -9 -32 -10 -61
-16 -90 -18 -19 -2 -41 -6 -48 -11 -13 -8 -40 -13 -97 -19 -16 -2 -46 -9 -65
-15 -19 -6 -46 -13 -60 -15 -25 -4 -132 -33 -160 -44 -8 -4 -19 -5 -24 -4 -4
1 -13 -2 -20 -7 -6 -6 -27 -13 -46 -16 -19 -4 -44 -11 -55 -15 -11 -5 -32 -13
-47 -20 l-28 -11 20 -35 c11 -19 18 -35 16 -35 -3 0 6 -27 19 -60 44 -113 48
-265 9 -342 -8 -15 -27 -41 -43 -57 -16 -17 -33 -36 -38 -43 -14 -23 -78 -61
-163 -97 -28 -12 -165 -4 -222 13 -32 9 -87 35 -123 58 -75 46 -105 92 -105
159 0 55 29 150 51 170 11 9 19 20 19 25 0 13 131 134 146 134 7 0 14 4 16 9
4 11 51 39 138 82 36 18 68 37 72 43 4 6 8 7 8 2 0 -5 6 -3 14 3 17 14 12 61
-8 76 -13 10 -47 69 -115 200 -19 39 -39 72 -42 75 -3 3 -10 16 -14 30 -4 14
-13 39 -20 55 -7 17 -18 45 -25 63 -7 17 -17 32 -23 32 -6 0 -7 3 -4 7 4 3 2
12 -4 19 -8 10 -26 3 -86 -32 -41 -24 -78 -44 -82 -44 -4 0 -16 -9 -26 -20
-10 -11 -23 -20 -28 -20 -28 0 -44 -31 -38 -73 12 -84 2 -281 -19 -387 -6 -30
-13 -66 -16 -80 -19 -103 -82 -310 -113 -368 -10 -21 -34 -68 -52 -107 -19
-38 -37 -71 -41 -73 -5 -2 -8 -10 -8 -19 0 -36 -197 -206 -279 -240 -93 -39
-190 -35 -237 11 -73 71 -103 198 -68 285 8 19 23 66 34 105 24 91 59 188 71
201 5 5 9 15 9 21 0 17 16 52 40 89 10 17 30 53 43 80 29 59 86 138 159 218
29 32 55 63 56 68 4 10 2 11 -45 15 -38 3 -98 30 -137 62 -60 49 -146 173
-146 211 0 10 -7 24 -15 31 -9 7 -14 15 -11 17 2 3 0 19 -6 36 -8 28 -9 75 -4
182 1 17 5 44 9 60 3 17 9 48 12 70 3 21 12 46 20 55 8 9 15 22 15 29 0 18 53
92 91 126 36 32 57 44 99 52 13 2 26 5 27 6 3 4 46 0 79 -8z"/>
<path d="M1952 4313 c-30 -6 -105 -79 -125 -123 -45 -97 -62 -275 -33 -345 8
-18 12 -36 9 -38 -17 -17 127 -197 157 -197 6 0 10 -4 10 -9 0 -5 12 -13 28
-19 30 -11 60 -21 67 -22 3 0 22 -7 42 -14 43 -15 53 -11 108 39 58 53 86 75
96 75 5 0 9 3 9 8 0 4 14 13 30 20 18 8 33 24 36 39 7 28 -15 112 -49 183 -11
25 -21 47 -22 50 -5 23 -18 50 -24 50 -4 0 -18 23 -30 50 -12 28 -27 50 -32
50 -5 0 -9 9 -9 19 0 11 -3 21 -8 23 -4 2 -27 27 -52 56 -45 54 -133 113 -166
111 -11 -1 -29 -4 -42 -6z"/>
<path d="M2960 4288 c-30 -10 -62 -19 -70 -21 -24 -3 -71 -49 -89 -87 -22 -45
-20 -155 2 -177 14 -14 19 -13 54 16 20 17 41 31 45 31 9 0 40 24 75 58 13 12
27 22 31 22 4 0 36 29 70 65 64 67 75 98 37 102 -84 8 -106 7 -155 -9z"/>
<path d="M2369 3632 c-13 -11 -29 -21 -36 -23 -15 -5 -92 -69 -144 -121 -21
-20 -39 -34 -42 -32 -3 3 -15 -8 -27 -23 -12 -15 -44 -51 -71 -80 -27 -28 -49
-56 -49 -61 0 -6 -4 -12 -8 -14 -11 -4 -81 -107 -115 -169 -22 -41 -41 -99
-37 -115 1 -4 -2 -10 -7 -13 -15 -11 -43 -68 -36 -75 3 -3 1 -6 -5 -6 -7 0
-11 -3 -11 -7 1 -5 0 -10 -1 -13 -2 -7 -11 -41 -14 -60 -2 -8 -8 -28 -15 -44
-6 -16 -10 -35 -7 -42 2 -6 0 -16 -6 -22 -6 -6 -11 -46 -12 -89 -1 -67 3 -83
24 -116 24 -36 34 -42 92 -51 61 -10 200 62 272 141 31 34 106 139 106 148 0
4 8 25 19 48 33 75 74 182 74 195 0 6 4 12 8 12 4 0 8 8 8 18 -1 9 6 36 15 59
8 23 17 56 19 75 3 18 12 71 20 118 21 113 28 179 28 273 -1 99 -8 115 -42 89z"/>
<path d="M3003 3200 c-23 -11 -53 -24 -67 -30 -15 -5 -26 -14 -26 -20 0 -5 -6
-10 -13 -10 -20 0 -77 -30 -77 -40 0 -4 -20 -20 -44 -34 -24 -14 -56 -42 -72
-62 -16 -20 -40 -50 -52 -66 -17 -20 -24 -42 -25 -76 -2 -70 36 -114 128 -146
67 -24 141 -41 158 -38 4 1 22 4 41 6 56 8 138 59 172 109 35 50 50 132 35
185 -5 18 -8 32 -6 32 12 0 -60 176 -81 198 -16 16 -21 15 -71 -8z"/>
</g>
</svg>
